<svg width="19" height="16" viewBox="0 0 19 16" fill="none" xmlns="http://www.w3.org/2000/svg">
<g clip-path="url(#clip0_173_374)">
<path d="M6 2C6 1.17157 6.45667 0.5 7.02 0.5H17.73C18.2933 0.5 18.75 1.17157 18.75 2C18.75 2.82843 18.2933 3.5 17.73 3.5H7.02C6.45667 3.5 6 2.82843 6 2Z" fill="black"/>
<path d="M6 8C6 7.17157 6.57084 6.5 7.275 6.5H17.475C18.1792 6.5 18.75 7.17157 18.75 8C18.75 8.82845 18.1792 9.5 17.475 9.5H7.275C6.57084 9.5 6 8.82845 6 8Z" fill="black"/>
<path d="M6 14C6 13.1716 6.45667 12.5 7.02 12.5H17.73C18.2933 12.5 18.75 13.1716 18.75 14C18.75 14.8284 18.2933 15.5 17.73 15.5H7.02C6.45667 15.5 6 14.8284 6 14Z" fill="black"/>
<path d="M1.74023 0.519599C2.55785 0.652309 3.11311 1.42266 2.9804 2.24022C2.84772 3.05787 2.07738 3.61311 1.25976 3.4804C0.442128 3.34772 -0.113109 2.57738 0.0196004 1.75977C0.152258 0.942178 0.922611 0.386889 1.74023 0.519599Z" fill="black"/>
<path d="M1.74023 6.5196C2.55785 6.65231 3.11311 7.42266 2.9804 8.24022C2.84772 9.05787 2.07738 9.61311 1.25976 9.4804C0.442128 9.34772 -0.113109 8.57738 0.0196004 7.75977C0.152258 6.94218 0.922611 6.38689 1.74023 6.5196Z" fill="black"/>
<path d="M1.74023 12.5196C2.55785 12.6523 3.11311 13.4227 2.9804 14.2402C2.84772 15.0579 2.07738 15.6131 1.25976 15.4804C0.442128 15.3477 -0.113109 14.5774 0.0196004 13.7598C0.152258 12.9422 0.922611 12.3869 1.74023 12.5196Z" fill="black"/>
</g>
<defs>
<clipPath id="clip0_173_374">
<rect width="18.75" height="15" fill="white" transform="translate(0 0.5)"/>
</clipPath>
</defs>
</svg>
