<svg width="40" height="40" viewBox="0 0 40 40" fill="none" xmlns="http://www.w3.org/2000/svg">
<g clip-path="url(#clip0_196_131)">
<path d="M20.1638 28.5716C24.0903 28.5716 22.6903 26.1643 22.9933 25.4721C22.9889 24.9552 22.9843 24.458 23.0024 24.1556C23.2512 24.2235 23.8382 24.5116 25.0506 25.6528C26.9222 27.4818 27.4007 28.5716 28.9127 28.5716H31.696C32.5781 28.5716 33.0372 28.2178 33.2668 27.9211C33.4884 27.6341 33.7057 27.1303 33.4681 26.3461C32.8472 24.458 29.226 21.1974 29.0009 20.8535C29.0349 20.79 29.0891 20.7056 29.1174 20.6618H29.1151C29.8299 19.7473 32.5578 15.7891 32.9592 14.2054C32.9603 14.2032 32.9614 14.2 32.9614 14.1966C33.1787 13.4737 32.9796 13.005 32.7738 12.74C32.4639 12.3435 31.9708 12.1431 31.3047 12.1431H28.5214C27.5896 12.1431 26.8827 12.5976 26.5253 13.4266C25.927 14.8997 24.2464 17.9292 22.9866 19.0014C22.9481 17.4823 22.9741 16.3225 22.9946 15.4605C23.0352 13.7793 23.1664 12.1431 21.3648 12.1431H16.9903C15.8617 12.1431 14.7817 13.3368 15.951 14.7541C16.9733 15.9961 16.3186 16.6883 16.5391 20.134C15.6796 19.2413 14.1506 16.8306 13.0693 13.7497C12.7663 12.9163 12.3071 12.1442 11.0145 12.1442H8.23121C7.10253 12.1442 6.42849 12.74 6.42849 13.7377C6.42849 15.9786 11.5506 28.5716 20.1638 28.5716ZM11.0145 13.787C11.2599 13.787 11.2848 13.787 11.4668 14.2875C12.574 17.4451 15.0576 22.1174 16.8716 22.1174C18.2343 22.1174 18.2343 20.7647 18.2343 20.2555L18.2332 16.201C18.1586 14.8593 17.6542 14.1912 17.3229 13.786L21.2902 13.7903C21.2924 13.809 21.2676 18.2753 21.3014 19.3574C21.3014 20.894 22.5613 21.7746 24.5281 19.847C26.6033 17.5787 28.0384 14.1878 28.0962 14.0498C28.181 13.8527 28.2546 13.786 28.5214 13.786H31.3047H31.316C31.3148 13.7892 31.3148 13.7925 31.3137 13.7957C31.0592 14.9457 28.5474 18.6104 27.7071 19.7484C27.6936 19.766 27.6811 19.7845 27.6687 19.8032C27.2989 20.388 26.998 21.0342 27.7196 21.9433C27.7852 22.02 27.9571 22.1995 28.2059 22.4493C28.9794 23.2225 31.6327 25.8664 31.8679 26.9178C31.7118 26.942 31.5421 26.9244 28.9127 26.9298C28.3529 26.9298 27.9152 26.1194 26.2448 24.4875C24.7429 23.0724 23.7681 22.4942 22.8802 22.4942C21.1568 22.4942 21.2822 23.849 21.2981 25.4874C21.3038 27.264 21.2924 26.7021 21.3049 26.8137C21.2042 26.8521 20.9159 26.9287 20.1638 26.9287C12.988 26.9287 8.3149 15.8986 8.13508 13.7903C8.19729 13.7848 9.0534 13.7881 11.0145 13.787Z" fill="black"/>
<path d="M31.1111 1.11133H8.88889C4.59334 1.11133 1.11111 4.59356 1.11111 8.88911V31.1113C1.11111 35.4069 4.59334 38.8891 8.88889 38.8891H31.1111C35.4067 38.8891 38.8889 35.4069 38.8889 31.1113V8.88911C38.8889 4.59356 35.4067 1.11133 31.1111 1.11133Z" stroke="black" stroke-width="2"/>
</g>
<defs>
<clipPath id="clip0_196_131">
<rect width="40" height="40" fill="white"/>
</clipPath>
</defs>
</svg>
