<svg width="40" height="40" viewBox="0 0 40 40" fill="none" xmlns="http://www.w3.org/2000/svg">
<path fill-rule="evenodd" clip-rule="evenodd" d="M11.7546 0.120003C13.8873 0.0218209 14.5673 0 19.9999 0C25.4327 0 26.1127 0.0236447 28.2437 0.120003C30.3745 0.216361 31.829 0.556372 33.1017 1.04909C34.4346 1.55272 35.6436 2.33998 36.6437 3.35828C37.6617 4.3564 38.4472 5.56373 38.9491 6.89807C39.4436 8.17083 39.7818 9.62533 39.8799 11.7527C39.9781 13.889 40 14.569 40 19.9999C40 25.4327 39.9762 26.1127 39.8799 28.2454C39.7835 30.3727 39.4436 31.8272 38.9491 33.1C38.4472 34.4346 37.6605 35.644 36.6437 36.6437C35.6436 37.6617 34.4346 38.4472 33.1017 38.9491C31.829 39.4436 30.3745 39.7818 28.2471 39.8799C26.1127 39.9781 25.4327 40 19.9999 40C14.5673 40 13.8873 39.9762 11.7546 39.8799C9.62726 39.7835 8.17276 39.4436 6.9 38.9491C5.56523 38.447 4.35597 37.6605 3.35634 36.6437C2.33891 35.6447 1.55147 34.4361 1.04909 33.1017C0.556372 31.829 0.218185 30.3745 0.120003 28.2471C0.0218209 26.1107 0 25.4308 0 19.9999C0 14.5673 0.0236447 13.8873 0.120003 11.7563C0.216361 9.62533 0.556372 8.17083 1.04909 6.89807C1.55223 5.56373 2.34019 4.35512 3.35828 3.35634C4.3564 2.33912 5.56459 1.55171 6.89807 1.04909C8.17083 0.556372 9.62726 0.218185 11.7546 0.120003ZM28.0817 3.72002C25.9726 3.62369 25.34 3.60373 19.9999 3.60373C14.66 3.60373 14.0272 3.62369 11.9181 3.72002C9.96733 3.80906 8.90913 4.13455 8.20366 4.40919C7.27097 4.77265 6.60369 5.2037 5.90359 5.90359C5.24017 6.5492 4.72931 7.33512 4.40919 8.20366C4.13455 8.90913 3.80906 9.96733 3.72002 11.9181C3.62369 14.0272 3.60373 14.66 3.60373 19.9999C3.60373 25.34 3.62369 25.9726 3.72002 28.0817C3.80906 30.0327 4.13455 31.0909 4.40919 31.7963C4.72909 32.6636 5.23996 33.4508 5.90359 34.0962C6.54898 34.7598 7.33641 35.2709 8.20366 35.5908C8.90913 35.8655 9.96733 36.1907 11.9181 36.28C14.0272 36.3763 14.6582 36.3963 19.9999 36.3963C25.3418 36.3963 25.9726 36.3763 28.0817 36.28C30.0327 36.1907 31.0909 35.8655 31.7963 35.5908C32.729 35.2271 33.3963 34.7963 34.0962 34.0962C34.7598 33.4508 35.2709 32.6636 35.5908 31.7963C35.8655 31.0909 36.1907 30.0327 36.28 28.0817C36.3763 25.9726 36.6437 25.34 36.6437 19.9999C36.6437 14.66 36.3763 14.0272 36.28 11.9181C36.1907 9.96733 35.8655 8.90913 35.5908 8.20366C35.2271 7.27097 34.7963 6.60369 34.0962 5.90359C33.4508 5.24017 32.6649 4.72952 31.7963 4.40919C31.0909 4.13455 30.0327 3.80906 28.0817 3.72002ZM17.4454 26.1655C18.8722 26.7594 20.4606 26.8394 21.9397 26.3922C23.4191 25.9449 24.697 24.998 25.5557 23.713C26.4141 22.4283 26.8001 20.8852 26.6474 19.3474C26.4946 17.8097 25.8127 16.3726 24.718 15.2817C24.0203 14.5844 23.1767 14.0506 22.2478 13.7185C21.319 13.3863 20.328 13.2642 19.3463 13.361C18.3645 13.458 17.4166 13.7712 16.5706 14.2785C15.7244 14.7855 15.0013 15.474 14.4533 16.2942C13.9051 17.1145 13.5457 18.0459 13.4009 19.0217C13.2561 19.9975 13.3293 20.9933 13.6155 21.9374C13.9017 22.8812 14.3935 23.7502 15.0558 24.4812C15.7182 25.2124 16.5341 25.7876 17.4454 26.1655ZM12.7309 12.7309C13.6854 11.7763 14.8187 11.0191 16.066 10.5024C17.3132 9.98579 18.6499 9.71995 19.9999 9.71995C21.3499 9.71995 22.6868 9.98579 23.934 10.5024C25.1813 11.0191 26.3144 11.7763 27.2689 12.7309C28.2237 13.6854 28.9809 14.8187 29.4976 16.066C30.014 17.3132 30.2801 18.6499 30.2801 19.9999C30.2801 21.3499 30.014 22.6868 29.4976 23.934C28.9809 25.1813 28.2237 26.3144 27.2689 27.2689C25.3411 29.197 22.7263 30.2801 19.9999 30.2801C17.2735 30.2801 14.6587 29.197 12.7309 27.2689C10.803 25.3411 9.71995 22.7263 9.71995 19.9999C9.71995 17.2735 10.803 14.6587 12.7309 12.7309ZM32.56 11.2508C32.7964 11.0277 32.9859 10.7595 33.1167 10.4617C33.2478 10.1641 33.3178 9.8431 33.3225 9.51805C33.3272 9.19278 33.2667 8.87008 33.1444 8.56862C33.0221 8.26738 32.8408 7.99361 32.6108 7.7636C32.3808 7.53381 32.107 7.35229 31.8058 7.22999C31.5043 7.10769 31.1816 7.04719 30.8564 7.05191C30.5313 7.05663 30.2103 7.12657 29.9127 7.25767C29.6151 7.38855 29.3467 7.57801 29.1236 7.81445C28.6895 8.27468 28.452 8.88574 28.4612 9.51805C28.4705 10.1504 28.7258 10.7543 29.1729 11.2015C29.6201 11.6486 30.2241 11.9039 30.8564 11.9132C31.4889 11.9224 32.0999 11.6849 32.56 11.2508Z" fill="black"/>
</svg>
